<mxfile host="app.diagrams.net" modified="2024-06-24T02:57:09.333Z" agent="Mozilla/5.0 (Windows NT 10.0; Win64; x64) AppleWebKit/537.36 (KHTML, like Gecko) Chrome/126.0.0.0 Safari/537.36" etag="EFWGJQZ7RczUuDM_nii_" version="24.6.2" type="onedrive">
  <diagram name="PÃ¡gina-1" id="TStzhKcHhodY2fsxUu3V">
    <mxGraphModel grid="1" page="1" gridSize="10" guides="1" tooltips="1" connect="1" arrows="1" fold="1" pageScale="1" pageWidth="827" pageHeight="1169" math="0" shadow="0">
      <root>
        <mxCell id="0" />
        <mxCell id="1" parent="0" />
        <mxCell id="uWjV3WR1QBULqYAhsD3L-4" value="" style="edgeStyle=orthogonalEdgeStyle;rounded=0;orthogonalLoop=1;jettySize=auto;html=1;" edge="1" parent="1" source="nT3O7LJaBUy_t6AOd7Xp-1" target="uWjV3WR1QBULqYAhsD3L-3">
          <mxGeometry relative="1" as="geometry" />
        </mxCell>
        <mxCell id="nT3O7LJaBUy_t6AOd7Xp-1" value="Inicio" style="ellipse;whiteSpace=wrap;html=1;aspect=fixed;" vertex="1" parent="1">
          <mxGeometry x="374" y="70" width="80" height="80" as="geometry" />
        </mxCell>
        <mxCell id="uWjV3WR1QBULqYAhsD3L-6" value="" style="edgeStyle=orthogonalEdgeStyle;rounded=0;orthogonalLoop=1;jettySize=auto;html=1;" edge="1" parent="1" source="uWjV3WR1QBULqYAhsD3L-3" target="uWjV3WR1QBULqYAhsD3L-5">
          <mxGeometry relative="1" as="geometry" />
        </mxCell>
        <mxCell id="uWjV3WR1QBULqYAhsD3L-3" value="&lt;span style=&quot;color: rgb(26, 26, 26);&quot;&gt;Mostrar mensaje: &quot;Por favor ingrese una palabra: &quot;&lt;/span&gt;" style="shape=parallelogram;perimeter=parallelogramPerimeter;whiteSpace=wrap;html=1;fixedSize=1;rounded=1;fillColor=#ffe6cc;strokeColor=#d79b00;" vertex="1" parent="1">
          <mxGeometry x="320" y="200" width="188" height="60" as="geometry" />
        </mxCell>
        <mxCell id="uWjV3WR1QBULqYAhsD3L-8" value="" style="edgeStyle=orthogonalEdgeStyle;rounded=0;orthogonalLoop=1;jettySize=auto;html=1;" edge="1" parent="1" source="uWjV3WR1QBULqYAhsD3L-5" target="uWjV3WR1QBULqYAhsD3L-7">
          <mxGeometry relative="1" as="geometry" />
        </mxCell>
        <mxCell id="uWjV3WR1QBULqYAhsD3L-5" value="&lt;span style=&quot;color: rgb(26, 26, 26);&quot;&gt;Definir la variable cantidad_letras y asignarle la longitud de palabra_ingresada&lt;/span&gt;" style="rounded=1;whiteSpace=wrap;html=1;fillColor=#dae8fc;strokeColor=#6c8ebf;" vertex="1" parent="1">
          <mxGeometry x="330" y="340" width="168" height="60" as="geometry" />
        </mxCell>
        <mxCell id="uWjV3WR1QBULqYAhsD3L-10" value="" style="edgeStyle=orthogonalEdgeStyle;rounded=0;orthogonalLoop=1;jettySize=auto;html=1;" edge="1" parent="1" source="uWjV3WR1QBULqYAhsD3L-7" target="uWjV3WR1QBULqYAhsD3L-9">
          <mxGeometry relative="1" as="geometry" />
        </mxCell>
        <mxCell id="uWjV3WR1QBULqYAhsD3L-7" value="&lt;span style=&quot;color: rgb(26, 26, 26);&quot;&gt;Mostrar mensaje: &quot;La palabra ingresada tiene: &quot;, cantidad_letras, &quot;letras&amp;nbsp;&lt;/span&gt;" style="shape=parallelogram;perimeter=parallelogramPerimeter;whiteSpace=wrap;html=1;fixedSize=1;rounded=1;fillColor=#ffe6cc;strokeColor=#d79b00;" vertex="1" parent="1">
          <mxGeometry x="310" y="480" width="208" height="60" as="geometry" />
        </mxCell>
        <mxCell id="uWjV3WR1QBULqYAhsD3L-9" value="Fin" style="ellipse;whiteSpace=wrap;html=1;rounded=1;" vertex="1" parent="1">
          <mxGeometry x="374" y="610" width="80" height="80" as="geometry" />
        </mxCell>
      </root>
    </mxGraphModel>
  </diagram>
</mxfile>
